<?xml version="1.0" encoding="UTF-8" standalone="no"?>
<svg
   height="100"
   width="100"
   viewBox="0 0 3200 3200"
   version="1.1"
   id="svg4"
   sodipodi:docname="code-solid.svg"
   inkscape:version="1.2.2 (732a01da63, 2022-12-09)"
   xmlns:inkscape="http://www.inkscape.org/namespaces/inkscape"
   xmlns:sodipodi="http://sodipodi.sourceforge.net/DTD/sodipodi-0.dtd"
   xmlns="http://www.w3.org/2000/svg"
   xmlns:svg="http://www.w3.org/2000/svg">
  <defs
     id="defs8" />
  <sodipodi:namedview
     id="namedview6"
     pagecolor="#505050"
     bordercolor="#eeeeee"
     borderopacity="1"
     inkscape:showpageshadow="0"
     inkscape:pageopacity="0"
     inkscape:pagecheckerboard="0"
     inkscape:deskcolor="#505050"
     showgrid="false"
     inkscape:zoom="2.1914063"
     inkscape:cx="-91.037433"
     inkscape:cy="19.165775"
     inkscape:window-width="1366"
     inkscape:window-height="715"
     inkscape:window-x="-8"
     inkscape:window-y="-8"
     inkscape:window-maximized="1"
     inkscape:current-layer="svg4" />
  <!--!Font Awesome Free 6.5.1 by @fontawesome - https://fontawesome.com License - https://fontawesome.com/license/free Copyright 2023 Fonticons, Inc.-->
  <g
     id="g240"
     transform="matrix(0.8,0,0,0.8,320,320)">
    <circle
       style="fill:#ffffff;stroke-width:27.6853;stroke-linecap:round;-inkscape-stroke:none;stop-color:#000000"
       id="path216"
       cx="1600"
       cy="1600"
       r="1600" />
  </g>
  <path
     opacity="1"
     fill="#1e3050"
     d="m 1783.2277,958.703 c -42.7866,-12.3326 -87.3352,12.58435 -99.6677,55.371 l -322.1588,1127.5551 c -12.3326,42.7867 12.5844,87.3352 55.371,99.6678 42.7868,12.3327 87.3353,-12.5843 99.6679,-55.371 l 322.1587,-1127.555 c 12.3325,-42.7867 -12.5844,-87.33524 -55.3711,-99.6679 z m 202.8593,302.2752 c -31.4608,31.4608 -31.4608,82.5532 0,114.014 l 224.7559,225.0076 -225.0076,225.0078 c -31.4608,31.4607 -31.4608,82.5531 0,114.014 31.4608,31.4607 82.5532,31.4607 114.0139,0 l 281.8888,-281.8889 c 31.4608,-31.4609 31.4608,-82.5533 0,-114.014 l -281.8888,-281.8888 c -31.4607,-31.4608 -82.5531,-31.4608 -114.0139,0 z m -771.9224,0 c -31.4607,-31.4608 -82.5531,-31.4608 -114.0138,0 L 818.26194,1542.867 c -31.46076,31.4608 -31.46076,82.5531 0,114.014 l 281.88886,281.8889 c 31.4607,31.4607 82.5531,31.4607 114.0138,0 31.4609,-31.4609 31.4609,-82.5532 0,-114.014 L 989.15707,1599.9998 1214.1646,1374.9922 c 31.4609,-31.4608 31.4609,-82.5532 0,-114.014 z"
     id="path2"
     style="fill:#333333;fill-opacity:1;stroke-width:2.51686" />
</svg>
