<?xml version="1.0" encoding="UTF-8" standalone="no"?>
<svg
   height="100"
   width="100"
   viewBox="0 0 3200 3200"
   version="1.1"
   id="svg4"
   sodipodi:docname="pen-nib-solid.svg"
   inkscape:version="1.2.2 (732a01da63, 2022-12-09)"
   xmlns:inkscape="http://www.inkscape.org/namespaces/inkscape"
   xmlns:sodipodi="http://sodipodi.sourceforge.net/DTD/sodipodi-0.dtd"
   xmlns="http://www.w3.org/2000/svg"
   xmlns:svg="http://www.w3.org/2000/svg">
  <defs
     id="defs8" />
  <sodipodi:namedview
     id="namedview6"
     pagecolor="#505050"
     bordercolor="#eeeeee"
     borderopacity="1"
     inkscape:showpageshadow="0"
     inkscape:pageopacity="0"
     inkscape:pagecheckerboard="0"
     inkscape:deskcolor="#505050"
     showgrid="false"
     inkscape:zoom="2.1914063"
     inkscape:cx="32.62745"
     inkscape:cy="62.973261"
     inkscape:window-width="1366"
     inkscape:window-height="715"
     inkscape:window-x="-8"
     inkscape:window-y="-8"
     inkscape:window-maximized="1"
     inkscape:current-layer="svg4" />
  <!--!Font Awesome Free 6.5.1 by @fontawesome - https://fontawesome.com License - https://fontawesome.com/license/free Copyright 2023 Fonticons, Inc.-->
  <g
     id="g240"
     transform="matrix(0.8,0,0,0.8,320,320)">
    <circle
       style="fill:#ffffff;stroke-width:27.6853;stroke-linecap:round;-inkscape-stroke:none;stop-color:#000000"
       id="path216"
       cx="1600"
       cy="1600"
       r="1600" />
    <path
       opacity="1"
       fill="#1e3050"
       d="m 2010.6447,731.81797 -203.6378,204.00329 457.7279,457.72774 203.6376,-203.6376 c 80.0658,-80.0658 80.0658,-209.48727 0,-289.55308 L 2300.1977,731.81797 c -80.0658,-80.06581 -209.4872,-80.06581 -289.553,0 z m -293.9403,278.95073 -33.6349,10.2367 -526.8258,157.9381 c -72.7538,21.9358 -130.5182,77.5066 -154.6476,149.8949 l -323.91922,965.908 c -13.8927,41.3125 -3.65598,87.3778 26.6886,118.4535 l 561.55742,-561.1918 c -10.9679,-23.0326 -17.1831,-48.6245 -17.1831,-75.6786 0,-96.8833 78.6034,-175.4868 175.4867,-175.4868 96.8833,0 175.4867,78.6035 175.4867,175.4868 0,96.8832 -78.6034,175.4867 -175.4867,175.4867 -27.0542,0 -52.646,-6.2152 -75.6786,-17.1832 l -561.55743,561.5575 c 31.44137,30.3446 77.14104,40.947 118.45352,26.6887 l 966.27371,-323.9193 c 72.0226,-24.1293 127.959,-81.8938 149.8949,-154.6476 l 157.938,-526.8258 10.2367,-33.6349 z"
       id="path2"
       style="fill:#333333;stroke-width:3.65597" />
  </g>
</svg>
