<?xml version="1.0" encoding="UTF-8" standalone="no"?>
<svg
   height="100"
   width="100"
   viewBox="0 0 3200 3200"
   version="1.1"
   id="svg4"
   sodipodi:docname="public-speak.svg"
   inkscape:version="1.2.2 (732a01da63, 2022-12-09)"
   xml:space="preserve"
   xmlns:inkscape="http://www.inkscape.org/namespaces/inkscape"
   xmlns:sodipodi="http://sodipodi.sourceforge.net/DTD/sodipodi-0.dtd"
   xmlns="http://www.w3.org/2000/svg"
   xmlns:svg="http://www.w3.org/2000/svg"><defs
     id="defs8" /><sodipodi:namedview
     id="namedview6"
     pagecolor="#505050"
     bordercolor="#eeeeee"
     borderopacity="1"
     inkscape:showpageshadow="0"
     inkscape:pageopacity="0"
     inkscape:pagecheckerboard="0"
     inkscape:deskcolor="#505050"
     showgrid="false"
     inkscape:zoom="2.1914063"
     inkscape:cx="-4.3351158"
     inkscape:cy="63.429589"
     inkscape:window-width="1366"
     inkscape:window-height="715"
     inkscape:window-x="-8"
     inkscape:window-y="-8"
     inkscape:window-maximized="1"
     inkscape:current-layer="svg4" /><!--!Font Awesome Free 6.5.1 by @fontawesome - https://fontawesome.com License - https://fontawesome.com/license/free Copyright 2023 Fonticons, Inc.--><circle
     style="fill:#ffffff;stroke-width:22.1482;stroke-linecap:round;-inkscape-stroke:none;stop-color:#000000"
     id="path216"
     cx="1600"
     cy="1600"
     r="1280" /><path
     style="fill:#333333;stroke-width:6.36758;fill-opacity:1"
     d="m 1292.4013,2366.3378 c -9.8282,-7.2724 -10.895,-37.3635 -12.3603,-348.6248 l -1.6037,-340.6653 -105.065,-3.1838 -105.065,-3.1839 -1.8394,-59.5413 c -2.0848,-67.4908 2.2961,-77.3615 34.3356,-77.3615 23.4645,0 21.1336,4.7239 34.562,-70.0434 4.0884,-22.764 12.6285,-55.0632 18.9781,-71.7759 10.2028,-26.8551 10.4997,-32.4813 2.5547,-48.4077 -12.1621,-24.3794 -1.4092,-55.1193 23.8503,-68.1815 51.8411,-26.8081 101.1768,42.1855 59.7727,83.5895 -8.5962,8.5963 -21.1795,15.6296 -27.9627,15.6296 -8.3555,0 -15.4826,7.8713 -22.0984,24.4057 -8.8874,22.2118 -29.823,112.1709 -29.823,128.1476 0,4.5389 138.8503,6.6361 439.3628,6.6361 241.6496,0 439.3628,-0.9065 439.3628,-2.0143 0,-13.856 -16.2928,-86.5326 -26.314,-117.3778 -10.0455,-30.9196 -15.7193,-39.7973 -25.4352,-39.7973 -6.878,0 -19.5387,-7.0333 -28.1349,-15.6296 -41.404,-41.404 7.9315,-110.3976 59.7727,-83.5895 25.2595,13.0622 36.0124,43.8021 23.8503,68.1815 -7.9521,15.9407 -7.6438,21.5633 2.6709,48.7097 6.4135,16.879 15.0578,49.1782 19.2097,71.7761 4.1518,22.5978 8.7367,47.5343 10.1887,55.4141 2.1171,11.4898 6.8751,14.3271 24.0255,14.3271 32.0396,0 36.4204,9.8707 34.3356,77.3615 l -1.8394,59.5413 -103.4732,1.7497 -103.4731,1.7496 v 340.0528 c 0,300.6489 -1.1594,341.2123 -10.0061,350.059 -8.8141,8.8142 -45.8407,10.0063 -310.7943,10.0063 -230.6485,0 -303.2963,-1.856 -311.5447,-7.9596 z m 146.2188,-926.4824 c -2.2612,-34.1461 -4.1261,-79.4187 -4.1441,-100.6056 l -0.033,-38.5217 -46.165,-13.9261 c -57.9492,-17.4809 -100.6754,-48.7677 -125.6983,-92.0444 -19.3966,-33.5459 -86.2864,-229.47166 -93.2853,-273.24012 -6.8729,-42.98109 23.9014,-75.43859 71.5264,-75.43859 37.507,0 47.7992,17.19667 91.3495,152.63067 45.191,140.53704 53.546,153.33774 107.6584,164.94264 18.3956,3.9452 43.034,7.1731 54.752,7.1731 21.2331,0 21.3886,0.2254 45.8019,66.3786 13.473,36.5082 25.4272,65.4478 26.5648,64.3102 7.0725,-7.0725 18.6045,-77.4616 13.5348,-82.6136 -3.2739,-3.3271 -5.9525,-15.5051 -5.9525,-27.0622 0,-20.2533 0.9164,-21.013 25.3489,-21.013 21.9498,0 25.9029,2.2069 29.4796,16.4579 2.6907,10.7203 0.8438,19.7447 -5.2977,25.8862 -8.2663,8.2664 -8.3083,14.2764 -0.3412,48.7637 4.9979,21.6343 9.9538,40.2017 11.0128,41.2609 1.0591,1.059 13.0191,-28.2741 26.5777,-65.1845 24.2808,-66.0992 24.9591,-67.1107 45.0334,-67.1471 36.7802,-0.066 84.7207,-13.6255 103.2222,-29.1935 14.1533,-11.9093 24.5638,-34.6426 47.1243,-102.9057 15.9268,-48.19068 33.7896,-104.5407 39.6951,-125.22219 13.3665,-46.80904 33.8805,-67.46212 67.0083,-67.46212 29.5367,0 60.4574,23.8004 66.4668,51.1613 7.1196,32.41499 -61.4136,250.87781 -95.9787,305.95081 -26.8209,42.7344 -87.8651,81.8225 -143.5207,91.8999 l -22.9531,4.156 -4.076,61.5488 c -2.2419,33.8519 -4.0909,79.4577 -4.1091,101.3463 l -0.033,39.7973 h -158.2291 -158.2289 z m 93.0617,-320.5753 c -53.4619,-26.4633 -85.7771,-79.011 -85.7771,-139.48217 0,-87.95134 66.1439,-154.0953 154.0953,-154.0953 63.9629,0 120.1064,37.18188 144.5771,95.74821 11.7469,28.11435 11.6561,88.79696 -0.1751,117.11316 -13.2733,31.7675 -45.5572,65.8368 -76.649,80.8881 -37.2786,18.0462 -99.4249,17.9677 -136.0713,-0.172 z"
     id="path190" /></svg>
