<?xml version="1.0" encoding="UTF-8" standalone="no"?>
<svg
   height="100"
   width="100"
   viewBox="0 0 3200 3200"
   version="1.1"
   id="svg4"
   sodipodi:docname="typing-touch.svg"
   inkscape:version="1.2.2 (732a01da63, 2022-12-09)"
   xml:space="preserve"
   xmlns:inkscape="http://www.inkscape.org/namespaces/inkscape"
   xmlns:sodipodi="http://sodipodi.sourceforge.net/DTD/sodipodi-0.dtd"
   xmlns="http://www.w3.org/2000/svg"
   xmlns:svg="http://www.w3.org/2000/svg"><defs
     id="defs8" /><sodipodi:namedview
     id="namedview6"
     pagecolor="#505050"
     bordercolor="#eeeeee"
     borderopacity="1"
     inkscape:showpageshadow="0"
     inkscape:pageopacity="0"
     inkscape:pagecheckerboard="0"
     inkscape:deskcolor="#505050"
     showgrid="false"
     inkscape:zoom="3.0991165"
     inkscape:cx="15.004276"
     inkscape:cy="29.68588"
     inkscape:window-width="1366"
     inkscape:window-height="715"
     inkscape:window-x="-8"
     inkscape:window-y="-8"
     inkscape:window-maximized="1"
     inkscape:current-layer="svg4" /><!--!Font Awesome Free 6.5.1 by @fontawesome - https://fontawesome.com License - https://fontawesome.com/license/free Copyright 2023 Fonticons, Inc.--><circle
     style="fill:#ffffff;stroke-width:22.1482;stroke-linecap:round;-inkscape-stroke:none;stop-color:#000000"
     id="path216"
     cx="1600"
     cy="1600"
     r="1280" /><path
     style="fill:#333333;stroke-width:4.40918;fill-opacity:1"
     d="m 1074.8339,2308.7938 c -60.3362,-25.2372 -99.46618,-73.7819 -109.54618,-135.9026 -2.5033,-15.4279 -4.5666,-80.3303 -4.5849,-144.2275 -0.035,-129.7433 1.2545,-136.6136 29.7761,-158.3681 12.06758,-9.2043 21.53908,-12.0957 44.38898,-13.5507 24.1601,-1.5384 30.4477,-3.6289 37.3656,-12.4235 18.3443,-23.3211 59.0081,-34.4337 84.1248,-22.9898 9.1493,4.1687 12.848,3.4567 22.8289,-4.3943 14.4094,-11.3343 43.2666,-19.6893 55.068,-15.9438 8.189,2.5992 8.6016,0.2976 8.6016,-47.9855 0,-55.3157 3.3024,-69.0407 21.2241,-88.2085 23.4864,-25.1193 58.6212,-31.4819 91.2099,-16.5172 39.3216,18.0566 45.8489,37.0149 46.1028,133.9034 0.1062,40.6196 0.9831,73.8537 1.948,73.8537 0.965,0 10.3896,-4.9094 20.9436,-10.91 63.1395,-35.8982 131.8364,1.0412 131.5263,70.7237 -0.165,37.0259 -12.0523,54.7971 -88.1488,131.7794 l -70.4848,71.3054 v 21.9455 c 0,68.833 -36.8293,129.5247 -97.976,161.4569 l -27.6855,14.458 -85.9789,1.1686 c -81.6381,1.1096 -87.2272,0.6465 -110.7036,-9.1731 z m 857.1763,2.1691 c -68.3425,-24.1223 -110.907,-81.5749 -114.9071,-155.0995 l -2.0391,-37.478 -74.0474,-75.0517 c -68.5175,-69.4468 -74.5906,-76.9202 -81.3211,-100.0723 -14.8939,-51.2334 8.2102,-96.6839 55.6401,-109.4555 27.8991,-7.5125 66.2922,1.6944 88.5888,21.244 7.3135,6.4126 7.716,2.6051 7.716,-72.996 0,-84.8606 2.176,-96.8818 21.2241,-117.2544 34.3545,-36.743 94.9049,-31.3758 122.8848,10.8925 11.5909,17.51 12.5201,22.299 13.9679,71.9953 l 1.5511,53.2375 19.4439,0.5503 c 12.8882,0.3646 25.3173,4.4372 36.8644,12.0788 14.3619,9.5042 19.4353,10.7624 28.8954,7.1657 26.5319,-10.0875 69.8742,2.6505 84.3877,24.8009 5.8643,8.95 10.4664,10.5189 30.8546,10.5189 13.1793,0 29.3201,2.7991 35.8686,6.2202 15.9863,8.3517 34.5403,28.4645 40.2854,43.6701 5.2577,13.9156 5.5958,90.5548 0.9083,205.8419 -3.0183,74.2342 -3.6655,78.2878 -17.0639,106.8818 -17.1609,36.6236 -47.524,67.8507 -82.8266,85.1836 -26.0674,12.7986 -27.4504,12.9754 -110.1731,14.09 -71.9315,0.9692 -87.0157,-0.013 -106.7028,-6.9641 z M 879.43502,1883.6149 c -19.8736,-20.3842 -34.3089,-44.7938 -43.974,-74.3579 -6.5743,-20.11 -7.2315,-47.6001 -6.1142,-255.7322 l 1.252,-233.2002 14.1473,-29.867 c 25.3358,-53.4873 79.3212,-96.2041 137.084,-108.4697 15.9265,-3.3819 113.54628,-4.9615 306.62548,-4.9615 h 283.2604 l 5.0403,-18.739 c 11.0907,-41.2338 58.3899,-89.619 102.4085,-104.7598 8.5979,-2.9574 44.8613,-6.638 80.5855,-8.1791 l 64.953,-2.8019 13.8628,-13.8654 c 24.0912,-24.0954 17.073,-63.73229 -14.1232,-79.76459 -7.8936,-4.0568 -56.4449,-5.4631 -190.2718,-5.5115 -173.7495,-0.063 -179.9647,-0.3558 -188.4923,-8.8834 -11.259,-11.259 -11.6643,-35.7402 -0.7551,-45.6129 7.2397,-6.5519 27.4231,-7.2972 197.6223,-7.2972 h 189.559 l 23.9085,12.1252 c 84.5246,42.8668 81.0308,166.57839 -5.7606,203.98239 -18.9788,8.1791 -34.7685,10.5168 -87.1134,12.8974 -68.7425,3.1262 -80.6342,6.5827 -101.9746,29.6404 -10.8815,11.7572 -21.4823,28.6708 -21.4823,34.2749 0,1.372 124.9025,2.4945 277.561,2.4945 187.1493,0 285.172,1.6008 300.9263,4.9144 59.0684,12.4239 111.0442,53.5391 137.0266,108.3943 l 14.2047,29.9895 1.252,233.2002 c 1.1173,208.1321 0.4601,235.6222 -6.1142,255.7322 -9.366,28.6494 -24.4361,54.7477 -40.5002,70.1381 l -12.5876,12.0597 -10.5767,-22.5816 c -18.3417,-39.1602 -74.7891,-78.9714 -111.9718,-78.9714 -5.728,0 -20.5206,-6.8009 -32.8725,-15.113 -24.0585,-16.1903 -63.0561,-26.7818 -85.8807,-23.3247 -7.59,1.1495 -19.0362,-0.5816 -25.4361,-3.847 -10.6828,-5.4504 -11.7744,-8.5678 -13.3227,-38.0431 -2.0249,-38.5499 -13.7652,-65.3385 -40.352,-92.0734 -48.5703,-48.8407 -125.2185,-55.9867 -181.9385,-16.9624 -42.6817,29.3658 -59.2645,62.343 -62.5191,124.3283 l -2.2573,42.9895 h -18.6974 c -37.6218,0 -80.1291,22.4125 -105.4828,55.6172 l -14.0427,18.3913 -21.0674,-23.8951 c -22.5972,-25.6304 -52.0594,-43.2343 -80.0743,-47.8451 -43.5183,-7.1625 -39.3651,-2.6884 -40.0745,-43.1694 -0.8238,-47.0065 -12.8464,-79.6123 -39.4469,-106.9822 -37.1978,-38.2738 -92.2505,-53.7793 -140.8163,-39.6608 -63.9801,18.5995 -101.4548,65.4632 -106.7008,133.4341 -2.7842,36.0749 -6.3086,39.3736 -39.5573,37.0248 -24.0273,-1.6972 -64.4187,10.1869 -87.0466,25.6113 -9.8427,6.7093 -26.4368,13.5288 -36.8757,15.1544 -45.97848,7.1602 -85.27738,37.603 -106.51638,82.513 l -12.3519,26.118 z m 742.61088,-217.17 c 19.0898,-19.0899 6.2475,-52.9101 -20.0913,-52.9101 -18.9932,0 -32.8188,13.0021 -32.8188,30.8642 0,7.3486 3.9193,17.1468 8.8183,22.0459 4.8991,4.899 14.6973,8.8184 22.0459,8.8184 7.3486,0 17.1468,-3.9194 22.0459,-8.8184 z m -596.6252,-199.1815 c 20.6486,-19.3984 7.201,-52.1415 -21.4146,-52.1415 -19.52928,0 -30.10908,10.9974 -30.10908,31.2976 0,28.3225 30.45038,40.6412 51.52368,20.8439 z m 199.7994,0.7686 c 19.4056,-19.4057 4.9672,-52.9101 -22.801,-52.9101 -19.5294,0 -30.1091,10.9974 -30.1091,31.2976 0,12.2624 2.6053,18.5281 9.7994,23.567 13.5038,9.4585 32.5616,8.5945 43.1107,-1.9545 z m 198.4128,0 c 19.4057,-19.4057 4.9673,-52.9101 -22.8009,-52.9101 -18.7303,0 -30.1092,11.0893 -30.1092,29.343 0,18.5444 13.191,32.3854 30.8643,32.3854 7.3487,0 17.1468,-3.9192 22.0458,-8.8183 z m 198.413,0 c 10.549,-10.549 11.413,-29.6068 1.9545,-43.1107 -5.0908,-7.2682 -11.2902,-9.7994 -24.0004,-9.7994 -12.7102,0 -18.9096,2.5312 -24.0004,9.7994 -15.6975,22.4112 -2.055,51.929 24.0004,51.929 7.3486,0 17.1468,-3.9192 22.0459,-8.8183 z m 198.4129,0 c 10.7819,-10.7819 11.5611,-33.753 1.5212,-44.8469 -9.8727,-10.9092 -34.354,-10.5039 -45.6129,0.7551 -4.8992,4.8991 -8.8184,14.6973 -8.8184,22.0459 0,7.3486 3.9192,17.1468 8.8184,22.0459 4.899,4.8991 14.6971,8.8183 22.0458,8.8183 7.3487,0 17.1468,-3.9192 22.0459,-8.8183 z m 198.189,1.0679 c 12.0925,-9.7919 13.3395,-33.1031 2.4165,-45.1729 -18.1334,-20.0372 -55.1027,-5.2374 -55.1027,22.0591 0,26.5386 31.4291,40.3268 52.6862,23.1138 z m 198.8832,-0.3809 c 12.3934,-10.0357 13.3872,-32.1499 2.0097,-44.722 -10.5972,-11.7096 -34.6655,-11.7391 -46.3479,-0.057 -27.5897,27.5897 13.864,69.4554 44.3382,44.7789 z"
     id="path177" /></svg>
